<svg width="59" height="59" viewBox="0 0 59 59" fill="none" xmlns="http://www.w3.org/2000/svg">
    <path fill-rule="evenodd" clip-rule="evenodd"
          d="M25.4358 0.157098C22.1748 0.647005 19.2283 1.58454 16.1743 3.10401C13.2845 4.54183 11.1612 6.02181 9.05173 8.06845C4.25227 12.725 1.10725 18.9332 0.171836 25.5968C-0.0577242 27.2326 -0.0571664 31.7515 0.17284 33.3902C0.626717 36.624 1.64078 39.8576 3.14407 42.8651C3.86488 44.3074 4.12176 44.7501 5.05941 46.1662C6.22149 47.9214 6.61346 48.408 8.14632 49.9985C12.479 54.4943 18.1391 57.466 24.7666 58.7249C26.0445 58.9677 31.6478 59.0745 33.0767 58.8833C38.3356 58.1799 43.4117 56.1169 47.5478 53.0019C51.7995 49.8 55.2682 45.0808 57.2044 39.8639C58.0416 37.6081 58.6131 35.3539 58.9009 33.1711C59.0937 31.7089 58.986 25.8933 58.7431 24.6556C57.8227 19.9643 56.5401 16.8352 53.8892 12.8141C51.9226 9.83097 50.0647 7.86655 47.203 5.74496C43.3347 2.87702 38.7099 0.961563 33.8376 0.209524C32.6544 0.0269248 31.8874 -0.00899274 29.3957 0.0017156C27.5917 0.00941223 26.0037 0.071766 25.4358 0.157098ZM43.5193 18.2667C44.1784 18.9259 44.1831 18.8781 42.8367 25.1399C42.2886 27.6885 41.3618 32.0273 40.9543 33.952C38.8583 43.8515 38.7974 44.0962 38.3374 44.4779C38.0236 44.7385 37.4303 44.7527 36.8878 44.5127C36.605 44.3876 35.5062 43.6396 34.4462 42.8503C30.2928 39.758 29.1405 38.9157 29.0629 38.9157C29.0187 38.9157 28.1201 39.7364 27.0661 40.7393C25.1784 42.5357 24.969 42.7059 24.3664 42.935L24.0628 43.0505L24.1411 41.7918C24.1842 41.0996 24.3072 39.41 24.4146 38.0373L24.6099 35.5415L24.995 35.2022C25.2068 35.0154 25.8521 34.4319 26.4291 33.9054C27.0061 33.3788 27.5337 32.8979 27.6015 32.8365C30.2083 30.4772 30.4333 30.2716 32.1861 28.6462C32.6778 28.1901 33.8797 27.0891 34.8569 26.1996C35.8341 25.31 36.9552 24.2822 37.3483 23.9155C37.7414 23.5488 38.1582 23.182 38.2748 23.1005C38.3913 23.0189 38.4866 22.8295 38.4866 22.6795C38.4866 22.4501 38.4329 22.407 38.1464 22.407C37.7592 22.407 37.4033 22.575 36.3697 23.2459C35.9696 23.5055 34.7387 24.2837 33.6344 24.9751C32.5301 25.6666 31.2501 26.4702 30.79 26.7609C30.3299 27.0516 28.9746 27.9046 27.7783 28.6568C26.582 29.4088 25.3522 30.1859 25.0454 30.3834C23.0817 31.6484 20.4547 33.2633 20.3605 33.2632C20.2401 33.2632 13.328 31.1743 12.7754 30.9709C12.0282 30.6958 11.8587 30.2661 12.2841 29.7252C12.6066 29.3153 12.9289 29.1663 16.2932 27.8741C19.1885 26.7621 21.3178 25.9388 24.0973 24.8567C24.8642 24.5582 26.8218 23.8057 28.4476 23.1846C31.2988 22.0955 33.3066 21.3206 36.2557 20.1712C37.3388 19.7491 41.0911 18.3163 42.1676 17.9139C42.6676 17.7269 43.0896 17.8371 43.5193 18.2667Z"
          fill="#505C50"/>
</svg>
