<svg width="270" height="52" viewBox="0 0 270 52" fill="none" xmlns="http://www.w3.org/2000/svg">
    <path fill-rule="evenodd" clip-rule="evenodd"
          d="M0 26.0002V51.9803H17.496H34.992V42.247V32.5137L31.6539 29.2569L28.3163 26.0002L31.6539 22.7435L34.992 19.4867V9.75343V0.0201122H17.496H0V26.0002ZM37.3144 0.753421C37.4358 1.15695 39.023 6.93501 40.8417 13.5939L44.1478 25.701L40.6495 38.3169C38.7249 45.2557 37.1511 51.1728 37.1516 51.4662C37.152 51.8823 38.8368 51.9744 44.8131 51.8852L52.4742 51.7708L54.2972 42.133C55.2999 36.8322 56.1293 32.4479 56.1401 32.3905C56.1509 32.3331 56.5138 32.2857 56.9467 32.2857C57.6124 32.2857 57.8811 33.0743 58.6941 37.4189C59.2224 40.2423 60.0631 44.6736 60.5625 47.2662L61.4701 51.9803H69.1831C73.4253 51.9803 76.896 51.8931 76.896 51.7867C76.896 51.6803 75.3244 45.976 73.4037 39.1109C71.4826 32.2459 69.908 26.2516 69.9045 25.7907C69.9006 25.3298 71.375 19.5676 73.1808 12.9854C74.9866 6.40367 76.464 0.789458 76.464 0.509543C76.464 0.125289 74.5909 0.0289108 68.815 0.115232L61.166 0.229629L60.8701 1.69625C60.7077 2.50289 59.9391 6.79254 59.1624 11.2293C57.9329 18.251 57.6482 19.2957 56.9631 19.2957C56.0403 19.2957 56.1337 19.643 54.4277 9.86741C53.7037 5.71897 53.0042 1.80645 52.8733 1.17246L52.6353 0.0201122H44.8645C37.6678 0.0201122 37.1101 0.0741675 37.3144 0.753421ZM79.056 16.5719V33.1238H88.992H98.928V35.8475V38.5712H88.992H79.056V45.2758V51.9803H96.12H113.184V26.0002V0.0201122H106.056H98.928V9.86741V19.7147H96.12H93.312V9.86741V0.0201122H86.184H79.056V16.5719ZM116.64 6.50173V12.9838L121.716 13.1015L126.792 13.2197L126.904 32.6L127.017 51.9803H134.14H141.264V32.4952V13.0102H146.448H151.632V6.51514V0.0201122H134.136H116.64V6.50173ZM154.761 25.8955L154.872 51.7708L172.044 51.8802L189.216 51.9899V45.6994V39.4093H179.28H169.344V35.638V31.8667H174.312H179.28V25.5812V19.2957H174.312H169.344V15.9434V12.5911H179.28H189.216V6.30562V0.0201122H171.933H154.65L154.761 25.8955ZM192.488 25.8955L192.521 51.7708L199.659 51.8852L206.796 52L211.108 40.1522C214.02 32.1504 215.619 28.3049 216.034 28.3049C216.547 28.3049 216.667 30.2408 216.763 40.1426L216.877 51.9803H223.567H230.256V25.9902V0L223.055 0.114813L215.853 0.229629L211.657 11.7531C208.713 19.84 207.253 23.3167 206.763 23.4118C206.132 23.5342 206.064 22.3957 206.064 11.7836V0.0201122H199.26H192.456L192.488 25.8955ZM235.872 26.0002V51.9803H243H250.128V42.133V32.2857H252.936H255.744V42.133V51.9803H262.872H270V26.0002V0.0201122H262.872H255.744V9.65789V19.2957H252.936H250.128V9.65789V0.0201122H243H235.872V26.0002ZM28.944 12.2685V18.6504L25.1731 22.3253L21.4021 26.0002L25.1731 29.6751L28.944 33.3501V39.7387V46.1277L17.388 46.0158L5.832 45.9043L5.71968 25.8955L5.60779 5.88659H17.2757H28.944V12.2685ZM50.3228 15.4196L52.9096 24.7431H56.8987H60.8878L61.5272 22.5432C62.907 17.7951 66.096 6.32615 66.096 6.11245C66.096 5.98841 66.6922 5.88659 67.4209 5.88659C68.4793 5.88659 68.7018 6.0345 68.5256 6.61989C67.1898 11.0541 63.504 25.1948 63.504 25.8833C63.504 26.3769 64.6704 30.9553 66.096 36.057C67.5216 41.1588 68.688 45.5087 68.688 45.7233C68.688 45.9383 68.1506 46.1138 67.4939 46.1138C66.3124 46.1138 66.2774 46.0346 64.2242 38.676C63.0828 34.5854 61.8568 30.248 61.5 29.0382L60.8507 26.8383L56.8853 26.84L52.92 26.8416L50.8036 34.4873C47.3774 46.866 47.6721 46.1138 46.2482 46.1138H45.0101L45.6447 43.7044C45.9937 42.3794 47.2539 37.8258 48.4453 33.5856L50.611 25.8766L47.9853 16.349C46.5415 11.109 45.36 6.59894 45.36 6.32615C45.36 6.03325 45.8447 5.88491 46.548 5.96369C47.714 6.09359 47.7844 6.27 50.3228 15.4196ZM87.264 15.5244V25.1621H96.12H104.976V15.5244V5.88659H106.056H107.136V26.0002V46.1138H96.12H85.104V45.0662V44.0187H95.04H104.976V35.638V27.2573H95.04H85.104V16.5719V5.88659H86.184H87.264V15.5244ZM145.584 6.93417V7.98175H140.4H135.216V27.0478V46.1138H134.136C133.306 46.1138 133.054 45.8955 133.05 45.171C133.046 44.6522 132.997 36.1199 132.942 26.2097L132.84 8.19127L127.656 7.98175C122.685 7.78062 122.466 7.73369 122.334 6.82941L122.196 5.88659H133.89H145.584V6.93417ZM183.168 6.93417V7.98175H173.232H163.296V16.3624V24.7431H168.51C173.67 24.7431 173.723 24.7527 173.586 25.6859C173.453 26.5948 173.265 26.6329 168.372 26.7469L163.296 26.8647V35.4419V44.0187H173.232H183.168V45.0734V46.1281L172.044 46.0162L160.92 45.9043L160.808 25.8955L160.696 5.88659H171.932H183.168V6.93417ZM200.88 24.9832C200.88 42.4796 200.94 44.0689 201.59 43.9445C202.075 43.8523 204.939 37.8191 210.606 24.9526L218.911 6.0961L221.559 5.97123L224.208 5.84678V25.9801V46.1138H223.128H222.048V27.0478C222.048 9.11021 222.003 7.98175 221.286 7.98175C220.692 7.98175 218.665 12.1968 212.106 27.0646L203.688 46.1474L201.096 46.0258L198.504 45.9043L198.392 25.8955L198.28 5.88659H199.58H200.88V24.9832ZM244.18 15.2101L244.296 24.5336L253.044 24.6471L261.792 24.7603V15.3236V5.88659H262.872H263.952V26.0002V46.1138H262.872H261.792V36.4761V26.8383H252.936H244.08V36.4761V46.1138H243H241.92V26.0002V5.88659H242.992H244.064L244.18 15.2101ZM8.208 16.3624V24.7431H13.7074H19.2067L22.9954 21.0854L26.784 17.4276V12.7047V7.98175H17.496H8.208V16.3624ZM20.736 14.5673C20.736 16.3595 20.5468 16.7295 18.7004 18.5481C17.2359 19.99 16.3266 20.5528 15.4604 20.5528H14.256V16.5719V12.5911H17.496H20.736V14.5673ZM8.208 35.4285V44.0187H17.496H26.784V39.1457V34.2728L23.0338 30.5555L19.2836 26.8383H13.7458H8.208V35.4285ZM18.8836 33.2109C20.6029 34.8477 20.736 35.1335 20.736 37.1918V39.4093H17.496H14.256V35.4285V31.4477H15.6436C16.6925 31.4477 17.4835 31.878 18.8836 33.2109Z"
          fill="#505C50"/>
</svg>
