<svg width="98" height="54" viewBox="0 0 98 54" fill="none" xmlns="http://www.w3.org/2000/svg">
    <path fill-rule="evenodd" clip-rule="evenodd"
          d="M38.0121 0.264353C33.8881 0.958905 31.9451 3.40141 34.817 4.28013C37.69 5.15884 38.4804 7.87811 38.3952 16.5958C38.3155 24.6789 37.8669 25.8881 34.9404 25.8881C32.4123 25.8881 29.9431 22.5795 24.1381 11.4182L19.6244 2.73633H9.81221C1.91245 2.73633 0 3.0373 0 4.28118C0 6.37852 9.44871 23.9749 14.4984 31.2835C21.4081 41.2808 26.9751 46.6194 34.0453 50.0248C39.6603 52.7304 42.0072 53.2492 48.6331 53.2492C57.1485 53.2492 57.8537 52.7756 57.8537 47.0593C57.8537 40.361 62.8357 40.0001 68.1986 46.311C74.0658 53.2134 78.0348 54.6615 88.6089 53.7585C101.104 52.6925 101.117 50.9919 88.7257 38.2721C84.6421 34.0796 81.9219 30.429 82.257 29.5871C82.5747 28.7894 85.4903 24.6705 88.7367 20.4348C95.8243 11.1867 98.6045 6.21751 97.8099 4.22014C97.3568 3.0836 94.7196 2.73633 86.5262 2.73633H75.8331L72.375 9.8397C68.2401 18.3343 62.6326 25.8881 60.4615 25.8881C57.9399 25.8881 57.0252 21.7502 57.5502 12.7337C58.1954 1.66714 57.3319 0.529547 47.964 0.0970308C44.0976 -0.0818689 39.6189 -0.0061012 38.0121 0.264353Z"
          fill="#505C50"/>
</svg>
