<svg width="482" height="88" viewBox="0 0 482 88" fill="none" xmlns="http://www.w3.org/2000/svg">
<line x1="478.82" y1="3.00049" x2="321.82" y2="3.00049" stroke="#D9D9D9" stroke-width="6" stroke-linecap="round"/>
<path d="M0.490916 67.7163C-0.417336 69.102 -0.0302642 70.9617 1.35546 71.8699L23.9372 86.6707C25.3229 87.579 27.1826 87.1919 28.0908 85.8062C28.9991 84.4205 28.612 82.5608 27.2263 81.6526L7.15362 68.4963L20.3099 48.4236C21.2182 47.0379 20.8311 45.1783 19.4454 44.27C18.0596 43.3617 16.2 43.7488 15.2917 45.1345L0.490916 67.7163ZM322.432 5.93753C324.054 5.59991 325.095 4.01124 324.757 2.38915C324.42 0.767064 322.831 -0.274194 321.209 0.0634287L321.82 3.00048L322.432 5.93753ZM3 69.3608L3.61133 72.2979L322.432 5.93753L321.82 3.00048L321.209 0.0634287L2.38867 66.4238L3 69.3608Z" fill="#D9D9D9"/>
</svg>
