<svg width="516" height="173" viewBox="0 0 516 173" fill="none" xmlns="http://www.w3.org/2000/svg">
<path d="M351.237 5.73399C352.746 5.051 353.416 3.27361 352.733 1.76407C352.05 0.254539 350.273 -0.415509 348.763 0.267479L350 3.00073L351.237 5.73399ZM0.19282 158.942C-0.391634 160.493 0.391375 162.223 1.94172 162.808L27.2061 172.332C28.7564 172.917 30.487 172.134 31.0715 170.583C31.656 169.033 30.8729 167.302 29.3226 166.718L6.86537 158.252L15.3314 135.795C15.9159 134.244 15.1328 132.514 13.5825 131.929C12.0322 131.345 10.3015 132.128 9.71709 133.678L0.19282 158.942ZM350 3.00073L348.763 0.267479L1.76333 157.267L2.99999 160.001L4.23665 162.734L351.237 5.73399L350 3.00073Z" fill="#D9D9D9"/>
<path d="M513 3.00073L350 3.00073" stroke="#D9D9D9" stroke-width="6" stroke-linecap="round"/>
</svg>
