<svg width="468" height="126" viewBox="0 0 468 126" fill="none" xmlns="http://www.w3.org/2000/svg">
<path d="M303.019 5.82231C304.577 5.25944 305.384 3.53988 304.822 1.98157C304.259 0.423253 302.539 -0.383715 300.981 0.179154L302 3.00073L303.019 5.82231ZM0.284182 109.726C-0.41973 111.226 0.22557 113.013 1.7255 113.717L26.1678 125.187C27.6677 125.891 29.4543 125.246 30.1581 123.746C30.862 122.246 30.2167 120.459 28.7168 119.755L6.9903 109.559L17.1863 87.8329C17.8902 86.333 17.2449 84.5465 15.745 83.8426C14.2451 83.1387 12.4585 83.784 11.7546 85.2839L0.284182 109.726ZM302 3.00073L300.981 0.179154L1.98082 108.179L2.99999 111.001L4.01915 113.822L303.019 5.82231L302 3.00073Z" fill="#D9D9D9"/>
<path d="M465 3.00073L302 3.00073" stroke="#D9D9D9" stroke-width="6" stroke-linecap="round"/>
</svg>
